
<group>
pitch_keycenter=24
volume=-5
hicc107=80
locc107=65

<region>
sample=..\Samples\pizzcato\C1_2.wav
lokey=24
hikey=25
tune_oncc123=-7
pan_oncc122=-40

<region>
sample=..\Samples\pizzcato\C1_3.wav
lokey=24
hikey=25
tune_oncc123=-4
pan_oncc122=15

<region>
sample=..\Samples\pizzcato\C1_4.wav
lokey=24
hikey=25
tune_oncc123=5
pan_oncc122=-15

<region>
sample=..\Samples\pizzcato\C1_1.wav
lokey=24
hikey=25
tune_oncc123=8
pan_oncc122=40

//========================
<group>
pitch_keycenter=27
volume=-5
hicc107=80
locc107=65

<region>
sample=..\Samples\pizzcato\Eb1_3.wav
lokey=24
hikey=24
tune_oncc123=10
pan_oncc122=-70

<region>
sample=..\Samples\pizzcato\Eb1_4.wav
lokey=24
hikey=24
tune_oncc123=-11
pan_oncc122=70

<region>
sample=..\Samples\pizzcato\Eb1_2.wav
lokey=26
hikey=28
tune_oncc123=-7
pan_oncc122=-40

<region>
sample=..\Samples\pizzcato\Eb1_3.wav
lokey=26
hikey=28
tune_oncc123=-4
pan_oncc122=15

<region>
sample=..\Samples\pizzcato\Eb1_4.wav
lokey=26
hikey=28
tune_oncc123=5
pan_oncc122=-15

<region>
sample=..\Samples\pizzcato\Eb1_2.wav
lokey=24
hikey=24
tune_oncc123=13
pan_oncc122=100

<region>
sample=..\Samples\pizzcato\Eb1_1.wav
lokey=24
hikey=24
tune_oncc123=-14
pan_oncc122=-100

<region>
sample=..\Samples\pizzcato\Eb1_1.wav
lokey=26
hikey=28
tune_oncc123=8
pan_oncc122=40

//========================
<group>
pitch_keycenter=30
volume=-5
hicc107=80
locc107=65

<region>
sample=..\Samples\pizzcato\Gb1_3.wav
lokey=25
hikey=27
tune_oncc123=10
pan_oncc122=-70

<region>
sample=..\Samples\pizzcato\Gb1_4.wav
lokey=25
hikey=27
tune_oncc123=-11
pan_oncc122=70

<region>
sample=..\Samples\pizzcato\Gb1_2.wav
lokey=29
hikey=31
tune_oncc123=-7
pan_oncc122=-40

<region>
sample=..\Samples\pizzcato\Gb1_3.wav
lokey=29
hikey=31
tune_oncc123=-4
pan_oncc122=15

<region>
sample=..\Samples\pizzcato\Gb1_4.wav
lokey=29
hikey=31
tune_oncc123=5
pan_oncc122=-15

<region>
sample=..\Samples\pizzcato\Gb1_2.wav
lokey=25
hikey=27
tune_oncc123=13
pan_oncc122=100

<region>
sample=..\Samples\pizzcato\Gb1_1.wav
lokey=25
hikey=27
tune_oncc123=-14
pan_oncc122=-100

<region>
sample=..\Samples\pizzcato\Gb1_1.wav
lokey=29
hikey=31
tune_oncc123=8
pan_oncc122=40

//========================
<group>
pitch_keycenter=33
volume=-5
hicc107=80
locc107=65

<region>
sample=..\Samples\pizzcato\A1_3.wav
lokey=28
hikey=30
tune_oncc123=10
pan_oncc122=-70

<region>
sample=..\Samples\pizzcato\A1_4.wav
lokey=28
hikey=30
tune_oncc123=-11
pan_oncc122=70

<region>
sample=..\Samples\pizzcato\A1_2.wav
lokey=32
hikey=34
tune_oncc123=-7
pan_oncc122=-40

<region>
sample=..\Samples\pizzcato\A1_3.wav
lokey=32
hikey=34
tune_oncc123=-4
pan_oncc122=15

<region>
sample=..\Samples\pizzcato\A1_4.wav
lokey=32
hikey=34
tune_oncc123=5
pan_oncc122=-15

<region>
sample=..\Samples\pizzcato\A1_2.wav
lokey=28
hikey=30
tune_oncc123=13
pan_oncc122=100

<region>
sample=..\Samples\pizzcato\A1_1.wav
lokey=28
hikey=30
tune_oncc123=-14
pan_oncc122=-100

<region>
sample=..\Samples\pizzcato\A1_1.wav
lokey=32
hikey=34
tune_oncc123=8
pan_oncc122=40

//========================
<group>
pitch_keycenter=36
volume=-5
hicc107=80
locc107=65

<region>
sample=..\Samples\pizzcato\C2_3.wav
lokey=31
hikey=33
tune_oncc123=10
pan_oncc122=-70

<region>
sample=..\Samples\pizzcato\C2_4.wav
lokey=31
hikey=33
tune_oncc123=-11
pan_oncc122=70

<region>
sample=..\Samples\pizzcato\C2_2.wav
lokey=35
hikey=37
tune_oncc123=-7
pan_oncc122=-40

<region>
sample=..\Samples\pizzcato\C2_3.wav
lokey=35
hikey=37
tune_oncc123=-4
pan_oncc122=15

<region>
sample=..\Samples\pizzcato\C2_4.wav
lokey=35
hikey=37
tune_oncc123=5
pan_oncc122=-15

<region>
sample=..\Samples\pizzcato\C2_2.wav
lokey=31
hikey=33
tune_oncc123=13
pan_oncc122=100

<region>
sample=..\Samples\pizzcato\C2_1.wav
lokey=31
hikey=33
tune_oncc123=-14
pan_oncc122=-100

<region>
sample=..\Samples\pizzcato\C2_1.wav
lokey=35
hikey=37
tune_oncc123=8
pan_oncc122=40

//========================
<group>
pitch_keycenter=39
volume=-5
hicc107=80
locc107=65

<region>
sample=..\Samples\pizzcato\Eb2_3.wav
lokey=34
hikey=36
tune_oncc123=10
pan_oncc122=-70

<region>
sample=..\Samples\pizzcato\Eb2_4.wav
lokey=34
hikey=36
tune_oncc123=-11
pan_oncc122=70

<region>
sample=..\Samples\pizzcato\Eb2_2.wav
lokey=38
hikey=40
tune_oncc123=-7
pan_oncc122=-40

<region>
sample=..\Samples\pizzcato\Eb2_3.wav
lokey=38
hikey=40
tune_oncc123=-4
pan_oncc122=15

<region>
sample=..\Samples\pizzcato\Eb2_4.wav
lokey=38
hikey=40
tune_oncc123=5
pan_oncc122=-15

<region>
sample=..\Samples\pizzcato\Eb2_2.wav
lokey=34
hikey=36
tune_oncc123=13
pan_oncc122=100

<region>
sample=..\Samples\pizzcato\Eb2_1.wav
lokey=34
hikey=36
tune_oncc123=-14
pan_oncc122=-100

<region>
sample=..\Samples\pizzcato\Eb2_1.wav
lokey=38
hikey=40
tune_oncc123=8
pan_oncc122=40

//========================
<group>
pitch_keycenter=42
volume=-5
hicc107=80
locc107=65

<region>
sample=..\Samples\pizzcato\Gb2_3.wav
lokey=37
hikey=39
tune_oncc123=10
pan_oncc122=-70

<region>
sample=..\Samples\pizzcato\Gb2_4.wav
lokey=37
hikey=39
tune_oncc123=-11
pan_oncc122=70

<region>
sample=..\Samples\pizzcato\Gb2_2.wav
lokey=41
hikey=43
tune_oncc123=-7
pan_oncc122=-40

<region>
sample=..\Samples\pizzcato\Gb2_3.wav
lokey=41
hikey=43
tune_oncc123=-4
pan_oncc122=15

<region>
sample=..\Samples\pizzcato\Gb2_4.wav
lokey=41
hikey=43
tune_oncc123=5
pan_oncc122=-15

<region>
sample=..\Samples\pizzcato\Gb2_2.wav
lokey=37
hikey=39
tune_oncc123=13
pan_oncc122=100

<region>
sample=..\Samples\pizzcato\Gb2_1.wav
lokey=37
hikey=39
tune_oncc123=-14
pan_oncc122=-100

<region>
sample=..\Samples\pizzcato\Gb2_1.wav
lokey=41
hikey=43
tune_oncc123=8
pan_oncc122=40

//========================
<group>
pitch_keycenter=45
volume=-5
hicc107=80
locc107=65

<region>
sample=..\Samples\pizzcato\A2_3.wav
lokey=40
hikey=42
tune_oncc123=10
pan_oncc122=-70

<region>
sample=..\Samples\pizzcato\A2_4.wav
lokey=40
hikey=42
tune_oncc123=-11
pan_oncc122=70

<region>
sample=..\Samples\pizzcato\A2_2.wav
lokey=44
hikey=46
tune_oncc123=-7
pan_oncc122=-40

<region>
sample=..\Samples\pizzcato\A2_3.wav
lokey=44
hikey=46
tune_oncc123=-4
pan_oncc122=15

<region>
sample=..\Samples\pizzcato\A2_4.wav
lokey=44
hikey=46
tune_oncc123=5
pan_oncc122=-15

<region>
sample=..\Samples\pizzcato\A2_2.wav
lokey=40
hikey=42
tune_oncc123=13
pan_oncc122=100

<region>
sample=..\Samples\pizzcato\A2_1.wav
lokey=40
hikey=42
tune_oncc123=-14
pan_oncc122=-100

<region>
sample=..\Samples\pizzcato\A2_1.wav
lokey=44
hikey=46
tune_oncc123=8
pan_oncc122=40

//========================
<group>
pitch_keycenter=48
volume=-5
hicc107=80
locc107=65

<region>
sample=..\Samples\pizzcato\C3_3.wav
lokey=43
hikey=45
tune_oncc123=10
pan_oncc122=-70

<region>
sample=..\Samples\pizzcato\C3_4.wav
lokey=43
hikey=45
tune_oncc123=-11
pan_oncc122=70

<region>
sample=..\Samples\pizzcato\C3_2.wav
lokey=47
hikey=49
tune_oncc123=-7
pan_oncc122=-40

<region>
sample=..\Samples\pizzcato\C3_3.wav
lokey=47
hikey=49
tune_oncc123=-4
pan_oncc122=15

<region>
sample=..\Samples\pizzcato\C3_4.wav
lokey=47
hikey=49
tune_oncc123=5
pan_oncc122=-15

<region>
sample=..\Samples\pizzcato\C3_2.wav
lokey=43
hikey=45
tune_oncc123=13
pan_oncc122=100

<region>
sample=..\Samples\pizzcato\C3_1.wav
lokey=43
hikey=45
tune_oncc123=-14
pan_oncc122=-100

<region>
sample=..\Samples\pizzcato\C3_1.wav
lokey=47
hikey=49
tune_oncc123=8
pan_oncc122=40

//========================
<group>
pitch_keycenter=51
volume=-5
hicc107=80
locc107=65

<region>
sample=..\Samples\pizzcato\Eb3_3.wav
lokey=46
hikey=48
tune_oncc123=10
pan_oncc122=-70

<region>
sample=..\Samples\pizzcato\Eb3_4.wav
lokey=46
hikey=48
tune_oncc123=-11
pan_oncc122=70

<region>
sample=..\Samples\pizzcato\Eb3_2.wav
lokey=50
hikey=52
tune_oncc123=-7
pan_oncc122=-40

<region>
sample=..\Samples\pizzcato\Eb3_3.wav
lokey=50
hikey=52
tune_oncc123=-4
pan_oncc122=15

<region>
sample=..\Samples\pizzcato\Eb3_4.wav
lokey=50
hikey=52
tune_oncc123=5
pan_oncc122=-15

<region>
sample=..\Samples\pizzcato\Eb3_2.wav
lokey=46
hikey=48
tune_oncc123=13
pan_oncc122=100

<region>
sample=..\Samples\pizzcato\Eb3_1.wav
lokey=46
hikey=48
tune_oncc123=-14
pan_oncc122=-100

<region>
sample=..\Samples\pizzcato\Eb3_1.wav
lokey=50
hikey=52
tune_oncc123=8
pan_oncc122=40

//========================
<group>
pitch_keycenter=54
volume=-5
hicc107=80
locc107=65

<region>
sample=..\Samples\pizzcato\Gb3_3.wav
lokey=49
hikey=51
tune_oncc123=10
pan_oncc122=-70

<region>
sample=..\Samples\pizzcato\Gb3_4.wav
lokey=49
hikey=51
tune_oncc123=-11
pan_oncc122=70

<region>
sample=..\Samples\pizzcato\Gb3_2.wav
lokey=53
hikey=55
tune_oncc123=-7
pan_oncc122=-40

<region>
sample=..\Samples\pizzcato\Gb3_3.wav
lokey=53
hikey=55
tune_oncc123=-4
pan_oncc122=15

<region>
sample=..\Samples\pizzcato\Gb3_4.wav
lokey=53
hikey=55
tune_oncc123=5
pan_oncc122=-15

<region>
sample=..\Samples\pizzcato\Gb3_2.wav
lokey=49
hikey=51
tune_oncc123=13
pan_oncc122=100

<region>
sample=..\Samples\pizzcato\Gb3_1.wav
lokey=49
hikey=51
tune_oncc123=-14
pan_oncc122=-100

<region>
sample=..\Samples\pizzcato\Gb3_1.wav
lokey=53
hikey=55
tune_oncc123=8
pan_oncc122=40

//========================
<group>
pitch_keycenter=57
volume=-5
hicc107=80
locc107=65

<region>
sample=..\Samples\pizzcato\A3_3.wav
lokey=52
hikey=54
tune_oncc123=10
pan_oncc122=-70

<region>
sample=..\Samples\pizzcato\A3_4.wav
lokey=52
hikey=54
tune_oncc123=-11
pan_oncc122=70

<region>
sample=..\Samples\pizzcato\A3_2.wav
lokey=56
hikey=67
tune_oncc123=-7
pan_oncc122=-40

<region>
sample=..\Samples\pizzcato\A3_3.wav
lokey=56
hikey=67
tune_oncc123=-4
pan_oncc122=15

<region>
sample=..\Samples\pizzcato\A3_4.wav
lokey=56
hikey=67
tune_oncc123=5
pan_oncc122=-15

<region>
sample=..\Samples\pizzcato\A3_2.wav
lokey=52
hikey=54
tune_oncc123=13
pan_oncc122=100

<region>
sample=..\Samples\pizzcato\A3_1.wav
lokey=52
hikey=54
tune_oncc123=-14
pan_oncc122=-100

<region>
sample=..\Samples\pizzcato\A3_1.wav
lokey=56
hikey=67
tune_oncc123=8
pan_oncc122=40

//========================
<group>
volume=-5
hicc107=80
locc107=65

<region>
sample=..\Samples\pizzcato\C4_3.wav
lokey=55
hikey=67
tune_oncc123=10
pan_oncc122=-70

<region>
sample=..\Samples\pizzcato\C4_4.wav
lokey=55
hikey=67
tune_oncc123=-11
pan_oncc122=70

<region>
sample=..\Samples\pizzcato\C4_2.wav
lokey=55
hikey=67
tune_oncc123=13
pan_oncc122=100

<region>
sample=..\Samples\pizzcato\C4_1.wav
lokey=55
hikey=67
tune_oncc123=-14
pan_oncc122=-100
